<svg width="305" height="272" viewBox="0 0 305 272" fill="none" xmlns="http://www.w3.org/2000/svg">
<path d="M211.678 83.8124C209.763 81.9 204.451 82.852 205.983 85.3664C210.838 93.3772 205.546 109.872 205.546 109.872L208.01 104.017L206.624 111.188L209.29 104.415C209.29 104.415 208.136 109.435 206.977 112.266C211.286 107.682 213.672 90.23 213.512 86.128L211.678 83.8124Z" fill="#A0593A"/>
<path d="M214.486 88.1104C215.878 89.3368 216.18 91.2632 215.153 92.4336C214.134 93.5956 212.176 93.5509 210.782 92.3273L200.797 83.5324C199.394 82.306 199.75 80.9817 200.763 79.8169C201.794 78.6521 203.099 78.092 204.496 79.3128L214.486 88.1104Z" fill="#929BB7"/>
<path d="M211.474 93.9904L208.679 91.6608C208.679 91.6608 209.329 87.248 213.506 86.436C216.337 88.48 216.449 89.2052 216.449 89.2052C216.449 89.2052 215.503 93.1112 211.474 93.9904Z" fill="#DBE2CB"/>
<path d="M215.816 89.1968C216.236 89.6952 215.587 90.944 214.366 91.9884C213.14 93.0272 211.807 93.4696 211.381 92.9684C210.958 92.4672 211.602 91.2212 212.826 90.1768C214.055 89.1352 215.391 88.6928 215.816 89.1968Z" fill="#8ACDFF"/>
<path d="M226.481 101.584C225.734 102.539 224.838 102.936 223.793 102.119L212.462 92.9069C211.4 92.0837 214.486 89.0484 215.542 89.8632L226.481 98.6552C227.54 99.4756 227.229 100.626 226.481 101.584Z" fill="#DBE2CB"/>
<path d="M225.963 101.033C225.448 101.688 224.645 101.917 224.166 101.545C223.693 101.175 223.715 100.341 224.23 99.6801C224.74 99.0221 225.541 98.7925 226.019 99.1593C226.498 99.5373 226.467 100.375 225.963 101.033Z" fill="#929BB7"/>
<path d="M154.522 217.008C156.39 215.479 177.023 210.644 186.123 217.473C186.123 217.473 186.504 219.366 184.984 219.366C183.469 219.366 179.193 216.286 177.309 216.09C172.566 215.619 163.975 218.643 161.66 218.512C159.344 218.383 154.522 217.008 154.522 217.008Z" fill="#929BB7"/>
<path d="M169.35 213.797H157.333V253.394H169.35V213.797Z" fill="#929BB7"/>
<path d="M169.35 213.679C169.35 214.15 166.654 214.53 163.316 214.53C159.978 214.53 157.268 214.15 157.268 213.679C157.268 213.212 159.978 212.822 163.316 212.822C166.654 212.822 169.35 213.209 169.35 213.679Z" fill="#B2BCCE"/>
<path opacity="0.71" d="M162.457 214.883V252.316H167.863V214.693C166.799 214.824 165.411 214.911 163.882 214.911C163.381 214.911 162.916 214.9 162.457 214.883Z" fill="#B2BCCE"/>
<path d="M193.274 259.406C193.274 259.4 193.274 259.395 193.274 259.392C193.274 259.389 193.274 259.384 193.274 259.381V257.387H190.549C185.82 255.721 175.418 254.565 163.313 254.565C151.203 254.565 140.796 255.721 136.069 257.387H133.348V259.529H133.387C133.835 262.136 147.045 264.222 163.313 264.222C179.573 264.222 192.781 262.136 193.229 259.529H193.274V259.406Z" fill="#929BB7"/>
<path d="M193.274 257.387C193.274 260.058 179.856 262.214 163.316 262.214C146.763 262.214 133.351 260.058 133.351 257.387C133.351 254.716 146.763 252.557 163.316 252.557C179.856 252.557 193.274 254.716 193.274 257.387Z" fill="#B2BCCE"/>
<path d="M163.917 257.239C168.296 256.679 184.043 254.646 182.789 254.646C181.341 254.646 172.252 251.95 169.693 250.376C169.444 250.225 169.217 250.813 166.941 251.087C165.81 251.224 164.387 251.213 163.609 251.227C162.825 251.213 161.567 251.188 160.439 251.048C158.163 250.771 157.757 250.222 157.51 250.373C154.948 251.947 145.339 254.643 143.885 254.643C142.639 254.643 158.387 256.676 162.769 257.236L162.791 257.384C162.791 257.384 162.99 257.356 163.34 257.312C163.687 257.356 163.883 257.384 163.883 257.384L163.917 257.239Z" fill="#B2BCCE"/>
<path opacity="0.59" d="M157.557 251.23C154.855 254.288 137.503 258.485 136.649 258.339C141.622 260.828 167.939 261.898 178.613 260.333C174.057 257.914 168.373 252.935 167.936 251.513C161.897 252.72 157.557 251.23 157.557 251.23Z" fill="#D3DCEA"/>
<path d="M166.393 196.445H160.264V213.447H166.393V196.445Z" fill="#929BB7"/>
<path d="M166.393 213.522C166.393 213.226 165.013 212.996 163.313 212.996C161.605 212.996 160.23 213.226 160.23 213.522C160.23 213.808 161.605 214.043 163.313 214.043C165.013 214.046 166.393 213.808 166.393 213.522Z" fill="#929BB7"/>
<path opacity="0.71" d="M163.603 212.764C164.384 212.764 165.089 212.806 165.627 212.895V197.109H162.877V212.778C163.11 212.769 163.348 212.764 163.603 212.764Z" fill="#B2BCCE"/>
<path d="M165.083 218.067C164.99 219.005 164.15 219.688 163.218 219.593L156.041 218.876C155.101 218.778 154.426 217.946 154.518 217.008C154.605 216.068 155.445 215.382 156.386 215.48L163.551 216.199C164.492 216.289 165.181 217.129 165.083 218.067Z" fill="#B2BCCE"/>
<path d="M164.499 218.053C164.499 218.66 164.101 219.159 163.617 219.159C163.124 219.159 162.729 218.66 162.729 218.053C162.729 217.44 163.127 216.952 163.617 216.952C164.104 216.952 164.499 217.44 164.499 218.053Z" fill="#929BB7"/>
<path d="M156.152 218.663L162.807 219.332C162.513 219.117 162.373 217.91 162.373 217.91L154.67 217.201C154.78 217.96 155.359 218.579 156.152 218.663Z" fill="#929BB7"/>
<path d="M97.8154 174.194C103.149 188.53 129.554 233.78 130.027 236.18C131.64 244.166 127.885 252.249 123.562 257.412C127.762 258.381 131.799 256.418 136.458 248.732C138.362 245.605 141.235 243.015 141.216 240.733C141.157 235.57 139.886 239.033 137.492 232.092C135.092 225.14 123.884 188.798 116.248 176.576C114.887 174.387 97.8154 174.194 97.8154 174.194Z" fill="#CC9483"/>
<path d="M139.514 236.183C141.238 236.866 143.128 239.655 143.14 242.673C143.159 245.689 141.336 247.856 143.501 254.542C142.132 255.346 141.994 255.032 141.994 255.032C141.994 255.032 139.838 246.649 138.62 247.626C137.397 248.592 136.554 252.958 134.905 256.463C133.267 259.994 123.943 261.926 123.147 261.274C122.33 260.618 120.955 258.146 122.915 256.656C124.878 255.158 125.158 254.302 125.158 254.302C125.158 254.302 129.456 255.436 131.903 251.563C134.947 246.725 139.514 236.183 139.514 236.183Z" fill="#282626"/>
<path d="M103.634 174.7C104.303 189.98 117.161 242.147 116.878 244.58C115.954 252.669 109.892 259.207 104.191 262.791C107.887 265 112.322 264.379 119.135 258.502C121.904 256.119 125.437 254.531 126.118 252.361C127.658 247.43 125.381 250.337 125.236 242.987C125.096 235.64 125.614 197.616 122.117 183.635C121.495 181.121 103.634 174.7 103.634 174.7Z" fill="#E0AC9B"/>
<path d="M125.894 247.498C127.33 248.674 128.271 251.91 127.355 254.789C126.44 257.664 124.043 259.168 124.043 266.196C122.492 266.538 122.455 266.196 122.455 266.196C122.455 266.196 122.985 257.555 121.529 258.11C120.07 258.653 117.917 262.542 115.274 265.381C112.625 268.226 103.163 267.198 102.603 266.33C102.032 265.454 101.483 262.685 103.81 261.864C106.134 261.044 106.672 260.316 106.672 260.316C106.672 260.316 110.404 262.716 113.924 259.79C118.314 256.124 125.894 247.498 125.894 247.498Z" fill="#FFBCBC" fill-opacity="0.4"/>
<path d="M197.863 122.797C196.65 119.484 192.526 113.638 192.445 113.532C189.729 108.906 186.783 97.5632 186.652 93.198C186.481 87.4272 173.755 102.704 173.755 102.704C176.894 106.87 177.65 108.64 177.518 117.121C177.518 117.121 176.818 125.857 171.204 138.967C170.188 141.341 200.8 130.799 197.863 122.797Z" fill="#E0AC9B"/>
<path d="M193.226 96.3256C195.595 87.4888 191.761 82.642 184.753 80.7604C177.731 78.8676 171.277 81.9448 168.891 90.762C168.429 92.4532 168.829 94.486 168.664 96.0792C168.474 98.3164 167.225 99.6213 166.503 100.612C166.265 101.321 167.135 101.881 168.126 102.295C168.566 107.019 168.505 110.827 172.839 110.852C180.113 110.888 190.826 105.134 193.226 96.3256Z" fill="#E0AC9B"/>
<path d="M191.955 198.209C194.189 194.706 195.676 193.22 195.861 190.924C195.987 189.392 192.277 184.957 188.449 183.652C185.674 182.708 175.222 184.075 171.873 184.075C163.901 184.075 158.164 195.658 162.624 197.893C167.085 200.122 191.955 198.209 191.955 198.209Z" fill="#455A64"/>
<path d="M203.222 133.126C196.205 131.001 192.696 131.27 180.906 137.323C157.741 154.118 127.599 161.68 124.163 163.092C119.381 165.057 117.466 174.3 110.721 187.522C110.721 187.522 106.311 194.382 112.686 194.544C117.149 194.656 180.903 195.818 188.555 191.355C189.549 190.775 190.527 189.61 191.481 188.028C183.862 189.182 163.341 189.529 161.138 189.07C158.592 188.538 156.994 188.006 159.444 186.096C161.678 184.344 188.737 175.655 198.196 169.792C201.326 158.194 203.642 145.676 204.496 142.268C206.086 135.89 203.222 133.126 203.222 133.126Z" fill="#455A64"/>
<path d="M169.533 117.564C171.048 116.015 174.803 116.29 175.593 115.382C175.962 114.962 176.76 114.64 176.76 114.64C178.715 118.462 186.423 111.975 187.921 110.785C189.405 109.592 190.469 113.204 190.469 113.204C190.469 113.204 196.307 119.686 198.858 123.514C201.409 127.338 202.151 136.368 199.608 142.741C197.055 149.117 194.507 155.492 191.315 162.506C188.131 169.518 140.954 188.003 137.129 191.831C137.129 191.831 140.1 211.383 144.137 222.86C145.968 228.057 136.975 224.353 121.617 222.648C115.882 222.006 104.777 210.134 100.314 211.408C95.8482 212.682 86.9302 205.671 86.9302 205.671C86.9302 205.671 93.7818 170.579 98.8778 166.757C103.974 162.932 126.083 159.53 131.823 153.796C137.56 148.056 154.452 134.352 159.551 128.61C161.914 125.952 165.073 122.13 169.533 117.564Z" fill="#FFBCBC" fill-opacity="0.4"/>
<path d="M194.616 120.114C188.876 120.114 185.151 123.617 182.819 129.354C181.069 133.655 161.984 162.506 157.527 165.693C153.063 168.879 130.117 173.345 125.654 173.983C123.73 174.255 119.491 168.243 112.264 169.52C106.606 170.52 101.669 164.01 107.588 163.357C132.668 160.594 152.75 133.977 174.422 117.563C175.155 117.009 172.834 120.114 180.372 118.305C183.085 117.659 187.492 115.329 187.492 115.329L194.616 120.114Z" fill="#574333"/>
<path d="M178.565 123.83C175.166 125.53 161.138 155.708 156.039 159.107C150.94 162.512 143.719 164.634 143.719 164.634C143.719 164.634 157.974 154.235 164.33 142.75C170.915 130.844 178.565 123.83 178.565 123.83Z" fill="#FFBCBC" fill-opacity="0.4"/>
<path d="M117.791 166.757C122.047 165.48 136.915 158.684 141.165 155.708C145.415 152.732 156.47 138.712 156.47 138.712C156.47 138.712 142.865 152.732 138.194 154.434C133.515 156.136 119.067 164.634 117.793 164.634C116.511 164.632 117.791 166.757 117.791 166.757Z" fill="#FFBCBC" fill-opacity="0.4"/>
<path d="M111.409 175.048C109.287 176.747 105.622 212.052 105.193 212.688C104.776 213.326 108.811 214.816 108.811 214.816C108.811 214.816 110.558 181.852 110.777 179.729C110.987 177.598 111.409 175.048 111.409 175.048Z" fill="#282626"/>
<path d="M99.6787 166.491C97.3378 167.342 94.731 170.159 90.2734 187.373C88.7222 193.346 86.9302 205.674 86.9302 205.674L89.3158 207.346C89.3158 207.346 92.477 187.04 94.4146 180.569C97.6038 169.943 101.272 165.911 99.6787 166.491Z" fill="#282626"/>
<path d="M206.239 134.501C204.64 132.695 203.276 132.244 201.566 131.799C201.045 131.83 201.398 135.302 201.759 135.498C203.271 136.29 203.497 137.959 203.514 138.844C203.749 151.589 163.348 171.847 143.826 174.944C138.722 175.753 136.387 187.692 131.448 199.156C131.448 199.156 128.314 206.34 134.682 206.497C139.145 206.609 182.391 206.178 190.046 201.718C191.995 200.575 193.975 196.482 195.859 190.924C187.073 192.878 164.39 192.581 162.945 192.581C161.245 192.581 158.272 191.304 161.251 189.602C163.995 188.031 193.549 181.317 200.745 173.015C203.982 159.04 206.443 144.609 207.252 141.358C208.017 138.309 207.247 136.035 206.239 134.501Z" fill="#FF725E" fill-opacity="0.4"/>
<path d="M196.124 95.7404C197.443 89.9752 196.303 83.0704 186.606 80.3516C178.943 78.2068 172.088 82.2752 172.304 84.266L178.881 89.3368C178.881 89.3368 189.306 103.776 174.152 121.526C167.457 129.371 164.537 136.427 171.111 147.319C172.87 145.079 161.174 136.903 177.999 126.972C187.13 121.579 198.008 105.025 195.989 96.2304C196.029 96.0708 196.085 95.9028 196.124 95.7404Z" fill="#A0593A"/>
<path d="M171.249 83.8292C175.124 85.1228 182.597 106.523 177.028 115.744C177.028 115.744 180.525 113.518 181.163 105.095C181.796 96.6728 181.228 88.5892 178.845 83.3448C176.462 78.1004 171.249 83.8292 171.249 83.8292Z" fill="#A0593A"/>
<path d="M186.072 80.7716C190.255 81.396 196.717 84.448 198.607 95.8076C200.511 107.176 199.193 120.856 200.702 125.681C202.267 130.696 203.829 136.752 200.702 139.258C200.702 139.258 201.528 127.845 196.933 121.29C194.018 117.116 190.356 117.113 189.734 110.426C189.104 103.746 189.631 88.2868 188.166 85.9908C186.707 83.6948 186.072 80.7716 186.072 80.7716Z" fill="#A0593A"/>
<path d="M185.519 249.598C185.535 249.567 212.707 243.401 220.863 232.694C224.582 227.822 225.895 221.236 225.889 214.634C225.895 206.744 224.038 198.836 222.308 193.827C220.698 189.165 219.346 181.493 219.346 172.068C219.346 162.638 220.701 151.458 224.54 139.787C227.902 129.545 228.919 119.546 228.919 110.998C228.919 100.181 227.298 91.6972 226.763 87.9536C225.816 81.3008 223.28 76.2356 222.624 72.66L223.123 72.5676C223.747 76.0116 226.304 81.1468 227.267 87.8752C227.796 91.6019 229.428 100.134 229.428 110.998C229.428 119.588 228.406 129.64 225.021 139.952C221.213 151.558 219.852 162.686 219.852 172.068C219.852 181.446 221.196 189.076 222.792 193.662C224.531 198.719 226.396 206.662 226.396 214.634C226.396 221.301 225.091 227.99 221.269 233.005C212.838 243.961 185.647 250.071 185.631 250.096L185.519 249.598ZM222.627 72.6572V72.6628V72.6656V72.6572Z" fill="#232121"/>
<path d="M243.276 38.9732C242.487 47.0792 252.085 73.6344 244.001 78.7192C248.241 79.9512 262.927 75.4964 264.343 72.9204C265.757 70.3444 264.285 52.3264 259.572 46.3204C254.849 40.32 243.276 38.9732 243.276 38.9732Z" fill="#FFBCBC" fill-opacity="0.4"/>
<path d="M267.748 41.02C268.666 49.3696 262.666 56.8092 258.735 57.7864C256.332 58.3912 251.382 56.2716 247.137 46.3176C243.665 38.1416 242.618 28.35 253.409 25.7628C263.559 23.3436 266.779 32.2728 267.748 41.02Z" fill="#E0AC9B"/>
<path d="M226.23 65.7972C222.41 67.2084 220.45 66.5588 218.695 65.968C216.931 65.3856 215.486 63.896 215.486 63.896C215.486 63.896 216.754 55.3196 218.927 54.8324C221.108 54.3452 224.334 56.4508 226.86 57.5204C229.382 58.59 242.974 72.5312 245.186 73.6736C247.398 74.8104 263.024 70.6608 273.662 67.662C279.914 65.9036 272.642 82.264 272.642 82.264C272.642 82.264 244.332 84.3248 241.016 84.0784C237.696 83.8404 226.23 65.7972 226.23 65.7972Z" fill="#E0AC9B"/>
<path d="M218.656 53.13C219.403 56.448 220.526 68.1213 221.405 71.2013C222.276 74.2869 225.121 73.5812 225.132 70.56C225.132 67.5444 223.396 51.2372 223.396 51.2372L218.656 53.13Z" fill="#FFBCBC" fill-opacity="0.4"/>
<path d="M218.608 63.8261C219.403 65.4501 221.436 65.8113 221.542 65.2233C221.766 63.9325 219.403 62.1629 218.818 61.9669C218.227 61.7681 218.51 63.6301 218.608 63.8261Z" fill="#E0AC9B"/>
<path d="M218.734 59.5113C218.14 59.7045 217.737 61.5637 218.423 61.9613C219.106 62.3617 222.228 65.4249 222.912 65.1337C223.606 64.8481 223.606 64.7417 222.926 64.0529C222.237 63.3669 218.734 59.5113 218.734 59.5113Z" fill="#E0AC9B"/>
<path d="M219.238 57.5513C220.4 59.9145 226.666 62.314 225.482 62.7004C224.298 63.0868 222.923 63.4648 221.167 62.0788C219.411 60.6956 217.068 59.5 217.656 58.5228C218.258 57.5456 219.238 57.5513 219.238 57.5513Z" fill="#E0AC9B"/>
<path d="M227.87 58.0077C226.885 58.3941 225.115 58.7693 224.519 59.9397C223.92 61.1157 224.107 62.8824 222.931 62.6808C221.752 62.4792 221.968 60.5165 222.371 58.9485C222.777 57.3833 223.57 55.8209 224.945 55.8237C226.317 55.8349 227.87 58.0077 227.87 58.0077Z" fill="#E0AC9B"/>
<path d="M201.466 68.698C201.36 68.8716 201.556 69.5856 202.11 69.9076C202.673 70.2268 208.45 74.928 208.844 74.69C209.242 74.452 209.525 74.41 209.206 74.0936C208.889 73.7716 201.466 68.698 201.466 68.698Z" fill="#FFBCBC" fill-opacity="0.4"/>
<path d="M225.032 39.0659C221.362 40.1803 219.267 40.6591 217.696 43.1315C216.582 44.8843 206.639 64.7727 206.639 64.7727C206.639 64.7727 211.452 65.1143 211.948 67.9591C218.914 61.7739 226.645 55.0427 229.258 52.5339C231.873 50.0307 231.571 44.9655 231.571 44.0107C231.565 42.0955 226.6 38.5871 225.032 39.0659Z" fill="#FFBCBC" fill-opacity="0.4"/>
<path d="M207.891 62.4935C207.891 62.4935 205.475 66.3183 204.223 66.7159C202.971 67.1163 201.468 68.6983 201.468 68.6983L209.383 74.3795C209.383 74.3795 210.313 72.5791 210.769 70.9943C211.206 69.4767 213.827 66.2259 213.827 66.2259C213.827 66.2259 211.408 62.5467 207.891 62.4935Z" fill="#232121"/>
<path d="M223.934 42.7589C225.317 43.6073 228.615 46.0545 229.147 47.2193C230.528 44.0329 230.626 43.2881 230.626 43.2881C230.626 43.2881 227.977 40.6337 227.126 40.4209C226.274 40.2081 223.934 42.7589 223.934 42.7589Z" fill="#232121"/>
<path d="M223.623 43.1816C224.149 43.3972 228.934 47.1156 228.82 47.8576C227.445 48.5996 213.414 64.6464 213.414 64.6464L211.188 62.6276L223.623 43.1816Z" fill="#232121"/>
<path opacity="0.7" d="M203.642 68.796L207.68 71.7136C207.68 71.7136 209.894 67.6004 209.805 66.2424C209.752 65.4444 208.069 64.0556 206.403 65.8168C204.546 67.7824 203.642 68.796 203.642 68.796Z" fill="#232121"/>
<path d="M213.148 65.814C212.776 66.08 210.762 69.16 210.443 69.9552C210.124 70.756 209.164 73.7296 209.164 73.7296L208.312 73.0912C208.312 73.0912 209.858 69.9048 210.174 68.9472C210.496 67.9896 211.983 65.072 212.297 65.072C212.619 65.0748 213.148 65.814 213.148 65.814Z" fill="#3F3D3D"/>
<path d="M304.035 250.264C304.572 250.967 305.023 251.476 304.883 252.333C304.735 253.19 304.074 254.598 304.074 254.598C304.074 254.598 296.836 256.586 294.775 255.693C293.445 255.125 291.124 255.584 289.531 256.452C287.937 257.32 280.47 258.333 276.443 256.273C273.542 254.783 272.957 251.58 275.147 250.421C277.434 249.205 279.058 249.399 281.36 249.527C283.662 249.662 304.035 250.264 304.035 250.264Z" fill="#282626"/>
<path d="M299.292 232.464C299.387 235.939 300.908 239.52 301.624 240.593C303.248 243.043 303.302 244.737 302.879 247.022C302.456 249.306 288.714 250.53 287.006 250.141C285.292 249.757 284.844 246.35 286.933 245.851C289.016 245.35 291.402 242.505 291.9 238.778C292.41 235.052 292.625 232.856 292.625 232.856L299.292 232.464Z" fill="#CC9483"/>
<path d="M303.248 243.043C303.836 241.34 304.553 251.423 304.147 252.479C303.738 253.54 296.497 254.668 295.061 254.607C293.619 254.545 293.697 252.75 290.388 254.405C287.078 256.065 279.958 256.256 277.393 255.29C273.694 253.893 273.579 249.071 277.449 248.909C281.31 248.752 286.932 245.848 286.932 245.848C286.932 245.848 284.398 247.472 287.61 247.962C290.83 248.461 302.019 246.587 303.248 243.043Z" fill="#FFBCBC" fill-opacity="0.4"/>
<path d="M284.88 246.935C285.81 245.932 287.638 244.21 287.994 244.714C288.35 245.213 290.766 246.798 289.442 247.968C288.123 249.141 286.636 249.83 286.348 249.908C286.051 249.987 284.88 246.935 284.88 246.935Z" fill="#FFBCBC" fill-opacity="0.4"/>
<path d="M265.263 129.945C265.269 134.246 267.29 140.832 268.142 143.382C268.984 145.933 277.04 190.103 278.02 195.126C279.722 203.837 279.935 202.776 281.632 206.175C283.329 209.574 288.859 232.851 289.279 237.524C296.934 238.159 300.756 236.883 302.668 233.058C300.753 224.134 299.689 198.632 295.232 193.533C290.771 188.431 287.582 130.631 285.672 126.804C283.757 122.979 265.263 129.945 265.263 129.945Z" fill="#DD9C67"/>
<path d="M282.026 254.881C283.213 255.844 283.947 257.02 283.757 257.981C283.563 258.941 283.395 261.296 283.395 261.296C283.395 261.296 278.414 263.992 276.163 266.199C273.738 268.582 264.795 270.841 260.757 269.878C256.725 268.918 255.21 265.048 257.898 263.127C260.592 261.198 282.026 254.881 282.026 254.881Z" fill="#282626"/>
<path d="M282.606 221.936C285.199 233.184 281.648 235.78 281.186 250.16L282.007 252.997L281.452 256.976C281.452 256.976 261.455 263.158 263.283 260.719C265.014 258.412 271.75 251.79 272.946 246.445C274.262 240.556 276.642 217.806 276.642 217.806L282.606 221.936Z" fill="#E0AC9B"/>
<path d="M281.525 250.054C283.25 252.935 283.762 256.04 282.312 258.994C277.63 260.646 272.87 265.695 272.87 265.695C272.87 265.695 268.108 268.293 264.003 268.218C260.332 268.153 255.342 265.163 258.523 263.172C261.407 261.369 263.835 257.65 267.897 254.377C269.824 257.55 273.797 254.332 275.78 256.01C279.434 259.084 281.525 250.054 281.525 250.054Z" fill="#FFBCBC" fill-opacity="0.4"/>
<path d="M267.133 255.049C267.32 251.972 272.708 251.395 273.665 254.856C274.628 258.314 272.708 257.16 271.935 257.547C271.165 257.933 267.133 255.049 267.133 255.049Z" fill="#FFBCBC" fill-opacity="0.4"/>
<path d="M276.972 59.5812C274.443 58.3352 272.511 52.1416 265.494 43.96L255.935 51.3968C259.289 54.1072 262.288 59.5112 261.779 61.4908C260.516 66.5224 259.135 68.9304 259.135 68.9304C257.559 86.128 277.574 58.7132 276.972 59.5812Z" fill="#E0AC9B"/>
<path d="M248.069 35.3557C245.524 35.8849 244.913 39.5557 245.098 43.3245C241.161 39.2897 242.889 31.5925 248.117 27.3225C251.687 24.4105 253.837 26.1353 254.607 28.6105C255.581 31.8445 248.069 35.3557 248.069 35.3557Z" fill="#FFBCBC" fill-opacity="0.4"/>
<path d="M251.787 26.0063C252.902 24.0407 264.253 22.7527 268.417 27.1207C271.9 30.1055 276.332 36.9487 279.522 45.8723C285.032 61.3031 288.445 68.0819 292.592 69.0367C293.995 69.3615 283.136 75.5691 282.28 75.0959C281.426 74.6199 274.636 51.5199 274.339 50.8171C274.238 50.5567 263.184 38.2423 263.184 38.2423L248.601 31.5279L251.787 26.0063Z" fill="#FFBCBC" fill-opacity="0.4"/>
<path d="M291.429 121.982C292.462 125.933 299.826 131.981 299.059 141.045C298.625 146.253 297.037 149.669 296.511 151.671C294.881 157.833 289.497 181.636 290.563 193.533C290.563 193.533 293.96 212.873 283.306 242.617C275.158 244.538 270.689 242.161 270.689 242.161C270.689 242.161 272.856 202.941 272.072 193.962C271.434 186.657 272.201 152.399 271.644 147.636C270.583 138.497 269.631 131.429 269.309 126.168L291.429 121.982Z" fill="#D0907B"/>
<path d="M268.486 65.2178C261.136 71.8762 258.761 68.3706 258.761 68.3706C256.72 73.3826 252.646 81.2926 251.951 83.8602C250.971 87.4554 254.681 91.2046 255.936 92.9434C257.185 94.6794 258.789 100.153 259.122 102.503C262.102 123.539 264.859 138.096 264.859 138.096C264.859 138.096 280.047 136.436 290.043 130.449C291.65 129.492 280.937 101.643 284.527 77.3894C285.93 67.973 285.048 66.9873 276.244 56.8821C273.411 59.3741 271.384 62.5998 268.486 65.2178Z" fill="#DD9C67"/>
<path d="M285.254 70.9998C286.206 80.2734 286.192 84.9438 287.55 92.123C291.084 110.841 300.15 127.235 298.966 127.899C295.536 129.811 290.58 132.183 285.475 133.205C285.475 133.205 278.165 104.757 278.036 103.354C275.905 80.1922 279.399 69.8966 277.451 65.901C276.336 63.619 275.625 60.1498 272.957 58.453C275.124 56.5406 276.051 58.201 276.283 55.9442C280.15 59.3938 284.467 63.1934 285.254 70.9998Z" fill="#D0907B"/>
<path d="M212.879 93.7496C213.792 92.6548 217.342 90.8656 218.14 90.79C219.249 90.6864 224.379 91.7784 225.905 92.2096C231.404 91.5236 245.051 89.1212 246.667 89.0036L266.149 72.7328L273.639 78.946C267.709 87.7044 256.318 96.2724 252.228 97.7452C245.664 100.106 229.408 98.4312 224.55 97.8684C222.416 98.2492 218.944 98.9212 218.121 98.6776C217.191 98.4144 216.556 98.8036 215.839 98.56C215.217 98.3472 215.654 97.4512 216.539 97.594C216.337 96.9528 215.108 97.5464 214.624 97.272C213.918 96.8716 215.111 95.7629 215.629 95.5921C215.206 95.5921 213.655 95.9616 213.378 95.7124C212.784 95.1888 213.204 94.5392 214.54 94.136C213.529 94.556 212.143 94.6456 212.879 93.7496Z" fill="#E0AC9B"/>
<path d="M277.853 66.4129C280.379 68.3169 279.289 71.6434 279.222 74.5134C279.138 79.055 267.185 88.7234 267.185 88.7234L256.335 80.693C256.335 80.693 265.287 68.2273 268.224 66.1945C274.42 61.8909 277.853 66.4129 277.853 66.4129Z" fill="#DBE2CB"/>
<path d="M280.186 72.3909C280.107 76.9325 270.534 91.2881 270.534 91.2881L262.997 85.7441C265.525 80.7769 274.026 72.6989 276.022 65.0773C280.065 66.5977 280.239 69.5461 280.186 72.3909Z" fill="#DBE2CB"/>
<path d="M250.907 34.6583C255.753 35.8399 260.592 41.2719 262.101 46.9363C263.045 50.5231 267.396 70.672 264.344 72.9204C267.228 71.4812 271.254 57.5847 270.173 52.5671C271.82 62.5715 268.491 71.7051 266.029 72.9707C270.473 69.8963 277.084 61.4432 277.084 61.4432L280.15 60.6731C280.15 60.6731 270.118 23.6684 248.865 29.1956L247.751 35.4647C248.879 35.1931 249.736 34.3727 250.907 34.6583Z" fill="#232121"/>
<path d="M258.396 40.6812C258.306 39.774 260.905 38.4804 261.568 39.9644C262.235 41.4316 264.746 46.438 261.868 47.0344C259.997 47.4208 258.396 40.6812 258.396 40.6812Z" fill="#E0AC9B"/>
<path d="M184.94 79.9484C188.449 79.6292 196.734 81.2224 200.881 81.5388C205.025 81.858 205.663 81.2224 208.209 81.2224C210.762 81.2224 213.503 86.4388 213.503 86.4388C213.503 86.4388 214.265 84.4088 209.805 85.3664C205.344 86.324 198.968 87.2788 193.867 86.9596C188.768 86.6404 184.94 79.9484 184.94 79.9484Z" fill="#A0593A"/>
<path d="M176.656 81.382C179.201 81.858 184.739 93.5676 184.781 100.428C184.86 113.1 180.158 116.603 172.192 126.168C175.057 124.415 179.366 119.316 182.552 113.739C179.682 120.114 173.626 124.099 169.482 131.426C169.482 131.426 172.909 126.644 174.897 125.53C176.888 124.415 183.028 116.049 184.3 113.579C184.227 115.651 181.435 122.027 179.201 124.02C183.188 120.59 187.651 114.853 188.449 109.119C189.247 103.382 189.303 91.3192 183.031 83.1432C180.962 80.4384 179.682 80.906 179.125 80.8276C178.565 80.7464 176.656 81.382 176.656 81.382Z" fill="#BA784A"/>
<path d="M188.134 80.2648C189.565 80.2648 195.831 82.642 199.026 82.6588C207.417 82.7092 209.173 81.4268 210.178 82.2332C210.71 82.6588 210.976 82.6588 210.976 82.6588C210.976 82.6588 204.97 83.986 198.438 83.188C191.903 82.39 188.134 80.2648 188.134 80.2648Z" fill="#BA784A"/>
<path d="M190.517 81.5976C193.389 83.5072 201.467 84.462 205.505 83.8768C209.537 83.2972 210.89 83.3196 211.676 83.8124C211.186 83.9328 208.047 84.2492 205.023 84.5152C201.997 84.784 195.358 84.2492 193.762 83.7228C192.166 83.1908 190.517 81.5976 190.517 81.5976Z" fill="#BA784A"/>
<path d="M51.4334 254.142L0 263.22V0L51.4334 3.02401V254.142Z" fill="#8B3E00"/>
<path d="M50.4282 263.22H0V271.289H50.4282V263.22Z" fill="#282626"/>
<path d="M78.6647 255.659L50.4293 271.289L48.979 260.193L78.6647 248.598V255.659Z" fill="#282626"/>
<path d="M50.4282 263.22L78.6635 248.598H48.9162L0 263.22H50.4282Z" fill="#FFBCBC" fill-opacity="0.4"/>
<path d="M11.7231 7.05884V252.157L44.8781 241.791V9.07764L11.7231 7.05884Z" fill="#282626"/>
<path d="M12.9522 8.32166L12.8599 248.85L41.5992 240.528V9.95965L12.9522 8.32166Z" fill="#E4E0E0"/>
<path d="M46.7682 247.635H43.7441V257.922H46.7682V247.635Z" fill="#B2BCCE"/>
<path d="M50.3663 259.26V259.255V258.79H49.8987C49.0895 258.401 47.3031 258.132 45.2227 258.132C43.1479 258.132 41.3643 258.404 40.5495 258.79H40.0791V259.288H40.0847C40.1687 259.899 42.4339 260.386 45.2227 260.386C48.0116 260.386 50.2823 259.899 50.3607 259.288H50.3663V259.26Z" fill="#929BB7"/>
<path d="M50.3663 258.79C50.3663 259.412 48.0648 259.918 45.2227 259.918C42.3863 259.918 40.0791 259.412 40.0791 258.79C40.0791 258.166 42.3863 257.664 45.2227 257.664C48.062 257.664 50.3663 258.166 50.3663 258.79Z" fill="#B2BCCE"/>
<path d="M45.3292 258.756C46.0824 258.625 48.7788 258.168 48.566 258.149C47.8744 258.082 46.6928 257.088 46.6928 257.088C46.3148 257.088 46.2364 257.258 45.85 257.32C45.654 257.351 45.4103 257.351 45.2759 257.354C45.1359 257.351 44.9259 257.345 44.7327 257.312C44.3407 257.25 43.7864 257.085 43.7612 257.135C43.526 257.656 42.1428 258.149 41.8936 258.149C41.678 258.149 44.3771 258.625 45.1303 258.756V258.79C45.1303 258.79 45.1667 258.784 45.2255 258.773C45.2871 258.784 45.3208 258.79 45.3208 258.79L45.3292 258.756Z" fill="#B2BCCE"/>
<path opacity="0.59" d="M44.2357 257.354C43.7709 258.065 40.7917 259.045 40.6489 259.014C41.5057 259.594 46.0193 259.843 47.8505 259.479C47.0637 258.916 46.0893 257.754 46.0193 257.418C44.9777 257.704 44.2357 257.354 44.2357 257.354Z" fill="#D3DCEA"/>
<path d="M60.4126 242.631H58.0522V251.779H60.4126V242.631Z" fill="#B2BCCE"/>
<path d="M63.4981 252.566C63.4981 252.563 63.4981 252.563 63.4981 252.566V252.56V252.171H63.1034C62.4286 251.843 60.9305 251.616 59.1917 251.616C57.4473 251.616 55.9494 251.843 55.2745 252.171H54.877V252.585H54.8825C54.9497 253.095 56.8509 253.506 59.1917 253.506C61.5269 253.506 63.431 253.095 63.4954 252.585L63.4981 252.566Z" fill="#929BB7"/>
<path d="M63.4981 252.171C63.4981 252.689 61.5689 253.114 59.1917 253.114C56.8061 253.114 54.877 252.689 54.877 252.171C54.877 251.644 56.8061 251.227 59.1917 251.227C61.5689 251.23 63.4981 251.644 63.4981 252.171Z" fill="#B2BCCE"/>
<path d="M59.2732 252.143C59.906 252.034 62.1684 251.65 61.992 251.633C61.4151 251.574 60.4211 250.743 60.4211 250.743C60.1047 250.743 60.046 250.883 59.7128 250.936C59.5532 250.964 59.346 250.964 59.234 250.967C59.122 250.964 58.94 250.961 58.7776 250.93C58.45 250.88 57.9823 250.743 57.9627 250.782C57.7695 251.219 56.6048 251.633 56.3976 251.633C56.2156 251.633 58.4835 252.031 59.1079 252.143L59.1163 252.174C59.1163 252.174 59.1472 252.165 59.2004 252.157C59.248 252.165 59.2732 252.174 59.2732 252.174V252.143Z" fill="#B2BCCE"/>
<path opacity="0.59" d="M58.3628 250.967C57.9736 251.563 55.4788 252.384 55.3584 252.361C56.0724 252.843 59.8552 253.056 61.3896 252.748C60.7316 252.274 59.9168 251.297 59.8552 251.02C58.9872 251.258 58.3628 250.967 58.3628 250.967Z" fill="#D3DCEA"/>
<path d="M65.769 240.946C65.9958 241.539 65.5758 242.208 64.8366 242.455L38.0013 251.241C37.2649 251.482 36.4753 251.205 36.2541 250.62C36.0301 250.032 36.4445 249.36 37.1865 249.113L64.0218 240.327C64.7638 240.089 65.545 240.363 65.769 240.946Z" fill="#B2BCCE"/>
<path d="M65.2681 240.842C65.1673 240.573 64.8005 240.456 64.4449 240.573L37.9792 249.368C37.6291 249.483 37.4247 249.794 37.5311 250.057C37.6347 250.326 38.0015 250.438 38.3515 250.326L64.8201 241.525C65.1729 241.41 65.3745 241.1 65.2681 240.842Z" fill="#D3DCEA"/>
</svg>
