<svg width="90" height="93" viewBox="0 0 90 93" fill="none" xmlns="http://www.w3.org/2000/svg">
<path d="M89.5295 0.296489L25.1867 0.160889C6.85908 1.98489 -1.39092 18.4501 1.16868 45.8833C15.6623 2.43729 83.4851 53.9065 89.5295 0.296489Z" fill="white"/>
<path d="M29.9301 78.204C30.3093 94.9812 5.61206 98.106 1.70366 81.564C-0.289535 58.7004 0.408875 32.1204 29.9133 30.4332C29.9145 46.3332 29.9325 62.3112 29.9301 78.204Z" fill="white"/>
<path d="M60.5532 59.6233C60.5532 65.9077 60.5448 72.2005 60.528 78.4933C60.6228 96.2425 34.3212 97.3033 32.7876 80.0497C32.7876 80.0509 32.7876 30.4345 32.7876 30.4345H60.4212C60.7296 40.1701 60.462 49.8757 60.5532 59.6233Z" fill="white"/>
</svg>
